# xmcd
#
# Track frame offsets:
#	150
#	13875
#	23727
#	34757
#	47315
#	60020
#	72800
#	85940
#	98000
#	110102
#	121932
#	133830
#	148357
#	162567
#
# Disc length: 2387 seconds
#
# Revision: 5
# Processed by: cddbd v1.5.1PL0 Copyright (c) Steve Scherf et al.
# Submitted via: audiograbber 1.83.01
#
DISCID=bb09510e
DTITLE=Various Artist - Blues History Part 2 [2 of 4]
DYEAR=1989
DGENRE=Blues
TTITLE0=Muddy Waters - I Want You To Love Me
TTITLE1=Etta James - Waiting For Charlie (To Come Home)
TTITLE2=Howlin' Wolf - The Red Rooster
TTITLE3=John Lee Hooker - Leave My Wife Alone
TTITLE4=Little Walter - Back Track
TTITLE5=Lowell Fulson - Rollin' Blues
TTITLE6=Sonny Boy Williamson - Let Me Explain
TTITLE7=Buddy Guy - Goin' Home
TTITLE8=Koko Taylor - Nitty Gritty
TTITLE9=Memphis Slim - Really Got The Blues
TTITLE10=Little Milton - Losin' Hand
TTITLE11=J.B. Lenoir - Man Watch Your Woman
TTITLE12=Big Bill Broonzy and Washboard Sam - Shirt Tail
TTITLE13=Muddy Waters - Blow Wind Blow
EXTD=
EXTT0=
EXTT1=
EXTT2=
EXTT3=
EXTT4=
EXTT5=
EXTT6=
EXTT7=
EXTT8=
EXTT9=
EXTT10=
EXTT11=
EXTT12=
EXTT13=
PLAYORDER=
